<svg viewBox="0 0 14.417 14.384" xmlns="http://www.w3.org/2000/svg">
    <path d="M5.723 14.23c-2.348-.499-4.238-2.047-5.168-4.232-.138-.324-.25-.663-.25-.753 0-.201.287-.269 1.142-.269 1.03 0 1.107.034 1.417.625.573 1.094 1.813 2.066 2.989 2.344.676.16 1.86.122 2.5-.081.98-.31 2.017-1.129 2.576-2.032.265-.429.57-1.264.503-1.374-.026-.04-.44-.074-.92-.074H9.64l-.22.331c-.12.183-.346.43-.502.548-1.213.925-2.894.749-3.802-.4l-.346-.437-2.338-.042-2.34-.043-.067-.592c-.04-.35-.032-.912.021-1.374C.396 3.322 2.619.845 5.649.131c.797-.188 2.403-.169 3.268.039 2.137.512 3.86 1.917 4.813 3.922.169.356.313.772.32.924.013.275.009.278-.453.333-.49.059-1.623.002-1.752-.088-.042-.029-.188-.28-.326-.56-.52-1.054-1.695-1.962-2.956-2.285-2.264-.577-4.683.722-5.462 2.933-.22.623-.167.664.852.664.824 0 .836-.003.956-.233.174-.331.707-.816 1.153-1.049.317-.165.507-.199 1.143-.199s.825.034 1.143.2c.445.232.978.717 1.152 1.048l.122.233h4.717l.06.712c.096 1.16-.183 2.541-.737 3.648-1.475 2.948-4.744 4.536-7.939 3.857z" fill="#ec6125"/>
</svg>
